Coordinates
version=1
nRows=42
nColumns=38
inDegrees=no

Units are S.I. units (second, meters, Newtons, ...)
If the header above contains a line with 'inDegrees', this indicates whether rotational values are in degrees (yes) or radians (no).

endheader
time	pelvis_tilt	pelvis_list	pelvis_rotation	pelvis_tx	pelvis_ty	pelvis_tz	hip_flexion_r	hip_adduction_r	hip_rotation_r	knee_angle_r	ankle_angle_r	subtalar_angle_r	mtp_angle_r	hip_flexion_l	hip_adduction_l	hip_rotation_l	knee_angle_l	ankle_angle_l	subtalar_angle_l	mtp_angle_l	lumbar_extension	lumbar_bending	lumbar_rotation	arm_flex_r	arm_add_r	arm_rot_r	elbow_flex_r	pro_sup_r	wrist_flex_r	wrist_dev_r	arm_flex_l	arm_add_l	arm_rot_l	elbow_flex_l	pro_sup_l	wrist_flex_l	wrist_dev_l
10	2.66676	1.44796	-1.18111	0.78717	1.05571	0.969088	0.0491702	0.0522853	-0.0870934	0.572953	0.242678	0	0	0.126479	-0.0821801	-0.0747049	0	0.0432014	0	0	-0.0625215	0.126453	0.0735108	0.453894	-0.210665	0.137455	1.31983	1.5708	0	0	0.562422	-0.195482	0.392826	1.08267	1.5708	0	0
10.01	2.6626	1.4465	-1.17225	0.787939	1.04967	0.969676	0.0515048	0.0555884	-0.0918614	0.566311	0.236725	0	0	0.128646	-0.084098	-0.0758755	0	0.0432381	0	0	-0.0661477	0.126765	0.0697951	0.455061	-0.209167	0.138332	1.31962	1.5708	0	0	0.568177	-0.199755	0.401972	1.07719	1.5708	0	0
10.02	2.66428	1.44495	-1.16885	0.788614	1.0438	0.970341	0.0530547	0.0583936	-0.0959617	0.559068	0.230485	0	0	0.129443	-0.0851963	-0.0767048	0	0.0394639	0	0	-0.0696385	0.126414	0.0664972	0.45474	-0.208207	0.138352	1.32038	1.5708	0	0	0.57428	-0.203417	0.411698	1.0709	1.5708	0	0
10.03	2.67315	1.44313	-1.17258	0.78918	1.0381	0.971107	0.0537274	0.0603628	-0.099518	0.551637	0.224089	0	0	0.128417	-0.0853068	-0.0769849	0	0.0338902	0	0	-0.0733337	0.125448	0.0637006	0.453255	-0.207557	0.137732	1.32207	1.5708	0	0	0.580502	-0.206408	0.421557	1.0642	1.5708	0	0
10.04	2.6875	1.44092	-1.18198	0.789667	1.03253	0.97197	0.0535389	0.0616649	-0.102282	0.544229	0.217322	0	0	0.125466	-0.0847182	-0.0765028	0	0.0280891	0	0	-0.0772967	0.12406	0.061574	0.451159	-0.207192	0.136283	1.32425	1.5708	0	0	0.586697	-0.208641	0.431102	1.05706	1.5708	0	0
10.05	2.70442	1.43999	-1.19084	0.790231	1.02734	0.972798	0.0539128	0.063986	-0.104097	0.537122	0.209335	0	0	0.113994	-0.0853999	-0.0820883	0	0.0252873	0	0	-0.0788685	0.121096	0.0578317	0.447899	-0.207926	0.132617	1.32645	1.5708	0	0	0.592745	-0.210814	0.439096	1.04957	1.5708	0	0
10.06	2.73044	1.43634	-1.2118	0.790636	1.02173	0.973807	0.0522826	0.0637915	-0.10726	0.530941	0.202641	0	0	0.114544	-0.0845435	-0.0806968	0	0.0237594	0	0	-0.0846596	0.118699	0.0566806	0.445358	-0.208078	0.13018	1.32925	1.5708	0	0	0.598548	-0.211377	0.446827	1.04264	1.5708	0	0
10.07	2.75697	1.43324	-1.23366	0.79099	1.0162	0.974769	0.051628	0.0626929	-0.110434	0.525811	0.196371	0	0	0.116158	-0.0833473	-0.0812885	0.0196046	0.026326	0	0	-0.0896262	0.116073	0.0553264	0.44318	-0.208235	0.128919	1.33159	1.5708	0	0	0.602695	-0.211412	0.451231	1.03712	1.5708	0	0
10.08	2.78273	1.43001	-1.25483	0.791295	1.01077	0.975733	0.0507538	0.0613171	-0.113748	0.520576	0.189941	0	0	0.117296	-0.0821987	-0.0816169	0.0433715	0.0320166	0	0	-0.094249	0.113474	0.0541339	0.440747	-0.208412	0.127127	1.33388	1.5708	0	0	0.606815	-0.210981	0.456052	1.0309	1.5708	0	0
10.09	2.80854	1.42703	-1.27664	0.791546	1.00542	0.976658	0.0503473	0.0594208	-0.116749	0.515888	0.183531	0	0	0.117727	-0.0807718	-0.0809205	0.0672477	0.039374	0	0	-0.098377	0.11077	0.0531433	0.43841	-0.208456	0.125316	1.33588	1.5708	0	0	0.610131	-0.210212	0.459762	1.02507	1.5708	0	0
10.1	2.83392	1.42429	-1.29861	0.791755	1.00014	0.97753	0.0503869	0.0571419	-0.119929	0.511674	0.177221	0	0	0.117323	-0.0791828	-0.0793329	0.0907234	0.0471924	0	0	-0.102044	0.108024	0.0523387	0.436318	-0.208578	0.123864	1.33751	1.5708	0	0	0.612634	-0.20916	0.462372	1.01965	1.5708	0	0
10.11	2.85642	1.42159	-1.31824	0.791955	0.994949	0.978354	0.050709	0.0549263	-0.12303	0.507802	0.171014	0	0	0.116015	-0.0779197	-0.077293	0.113617	0.0546751	0	0	-0.105306	0.105629	0.0516742	0.434144	-0.208577	0.122413	1.33886	1.5708	0	0	0.614369	-0.207988	0.464316	1.01466	1.5708	0	0
10.12	2.8761	1.41888	-1.33552	0.792136	0.98987	0.97914	0.0509236	0.0528842	-0.126214	0.503826	0.165186	0	0	0.113868	-0.0770761	-0.0754393	0.136178	0.0618849	0	0	-0.108218	0.103639	0.0510612	0.431756	-0.208432	0.121155	1.34012	1.5708	0	0	0.615407	-0.206769	0.465786	1.01018	1.5708	0	0
10.13	2.89291	1.41637	-1.35028	0.792288	0.984874	0.979864	0.0512335	0.0510443	-0.12961	0.499621	0.159474	0	0	0.111092	-0.0764714	-0.073306	0.157996	0.069644	0	0	-0.110564	0.102039	0.0503394	0.429323	-0.208272	0.120281	1.34126	1.5708	0	0	0.615774	-0.20564	0.466981	1.00639	1.5708	0	0
10.14	2.90472	1.41409	-1.36039	0.792436	0.979962	0.980515	0.0514286	0.049955	-0.132279	0.494514	0.153577	0	0	0.107483	-0.0765053	-0.0705852	0.178477	0.078542	0	0	-0.112234	0.101138	0.0495503	0.426645	-0.208047	0.119406	1.34252	1.5708	0	0	0.615476	-0.204651	0.467938	1.0033	1.5708	0	0
10.15	2.91124	1.41191	-1.36537	0.792562	0.975135	0.981089	0.0510938	0.0497743	-0.134506	0.487906	0.147298	0	0	0.103008	-0.0773828	-0.067815	0.197871	0.090001	0	0	-0.11341	0.101063	0.0486009	0.423755	-0.207656	0.117549	1.3441	1.5708	0	0	0.614652	-0.203936	0.46888	1.00093	1.5708	0	0
10.16	2.91359	1.40972	-1.36631	0.792628	0.970323	0.981589	0.0505978	0.0500579	-0.137343	0.480732	0.141424	0	0	0.0980267	-0.0789924	-0.06573	0.217068	0.104809	0	0	-0.114461	0.101776	0.0474913	0.420839	-0.207431	0.115856	1.3461	1.5708	0	0	0.61344	-0.203434	0.469632	0.99956	1.5708	0	0
10.17	2.91196	1.40768	-1.36343	0.792682	0.965584	0.982007	0.0500528	0.0509149	-0.140663	0.473127	0.13561	0	0	0.0921797	-0.0811579	-0.0636286	0.235007	0.122136	0	0	-0.115039	0.103092	0.0462377	0.4177	-0.207218	0.114463	1.34819	1.5708	0	0	0.611561	-0.203205	0.46989	0.999836	1.5708	0	0
10.18	2.90688	1.40555	-1.35718	0.792734	0.960898	0.982376	0.0494265	0.0522308	-0.144515	0.465521	0.129833	0	0	0.0853808	-0.0839749	-0.061696	0.251958	0.140268	0	0	-0.115453	0.104941	0.0447769	0.414471	-0.206845	0.112926	1.35005	1.5708	0	0	0.609071	-0.203367	0.469674	1.00118	1.5708	0	0
10.19	2.8988	1.40341	-1.3481	0.792769	0.956218	0.982684	0.0490335	0.0540415	-0.148405	0.4582	0.124008	0	0	0.0779931	-0.0873828	-0.0605395	0.26843	0.156947	0	0	-0.11572	0.107251	0.0432598	0.411173	-0.206275	0.110999	1.35178	1.5708	0	0	0.606183	-0.203789	0.469171	1.00323	1.5708	0	0
10.2	2.88787	1.40114	-1.33629	0.792801	0.951571	0.982954	0.0483103	0.0567108	-0.151894	0.450159	0.117829	0	0	0.0697972	-0.09145	-0.0613351	0.28365	0.169872	0	0	-0.11585	0.110014	0.0416971	0.407872	-0.205763	0.109229	1.35326	1.5708	0	0	0.603002	-0.204378	0.468638	1.00581	1.5708	0	0
10.21	2.87587	1.39867	-1.32353	0.792821	0.946999	0.983203	0.0471167	0.059868	-0.155553	0.441375	0.111298	0	0	0.0603792	-0.0958242	-0.0633149	0.297346	0.178518	0	0	-0.115875	0.11293	0.0400546	0.404562	-0.205403	0.107756	1.35444	1.5708	0	0	0.599512	-0.204984	0.4679	1.00894	1.5708	0	0
10.22	2.86351	1.39617	-1.31057	0.792773	0.94242	0.983427	0.0462699	0.0628471	-0.159141	0.433138	0.104562	0	0	0.0502906	-0.10032	-0.0664116	0.310306	0.183932	0	0	-0.11588	0.115977	0.038367	0.401555	-0.205172	0.106201	1.35552	1.5708	0	0	0.595793	-0.205568	0.467047	1.01223	1.5708	0	0
10.23	2.85073	1.39385	-1.29735	0.792695	0.937817	0.983622	0.0460053	0.0657694	-0.16216	0.425609	0.0978866	0	0	0.0400036	-0.104977	-0.0710567	0.32304	0.187995	0	0	-0.115651	0.118984	0.0368114	0.398383	-0.204628	0.104028	1.35676	1.5708	0	0	0.59206	-0.206052	0.466308	1.01527	1.5708	0	0
10.24	2.8365	1.39154	-1.28254	0.792603	0.933192	0.983797	0.0455887	0.0691804	-0.164601	0.417469	0.0909825	0	0	0.0293749	-0.110059	-0.0766448	0.335379	0.192184	0	0	-0.11531	0.122155	0.0351722	0.395199	-0.204092	0.101172	1.35841	1.5708	0	0	0.588481	-0.206458	0.465823	1.01818	1.5708	0	0
10.25	2.82274	1.38911	-1.26831	0.792485	0.928597	0.983936	0.0452808	0.0724601	-0.167327	0.409885	0.0841833	0	0	0.0183326	-0.115402	-0.0842962	0.347753	0.197826	0	0	-0.11494	0.12515	0.03359	0.391876	-0.203691	0.0984411	1.36056	1.5708	0	0	0.584941	-0.206762	0.4655	1.02143	1.5708	0	0
10.26	2.75074	1.38196	-1.20018	0.791956	0.923062	0.985057	0.0418401	0.08658	-0.178691	0.39287	0.0662645	0	0	0.00697935	-0.133235	-0.0960459	0.361392	0.203499	0	0	-0.118912	0.143393	0.0359823	0.392194	-0.207318	0.0983546	1.36204	1.5708	0	0	0.580668	-0.201702	0.45921	1.02084	1.5708	0	0
10.27	2.79245	1.38471	-1.23686	0.792038	0.919365	0.984006	0.0456853	0.0794175	-0.172124	0.394874	0.0705848	0	0	-0.00216695	-0.127071	-0.103139	0.376216	0.212914	0	0	-0.11318	0.131547	0.0298083	0.385351	-0.203305	0.0937899	1.36525	1.5708	0	0	0.577393	-0.206995	0.463645	1.02799	1.5708	0	0
10.28	2.77547	1.38369	-1.21884	0.791711	0.914693	0.983814	0.0479537	0.0825771	-0.175627	0.388697	0.0651614	0	0	-0.00798476	-0.134522	-0.117823	0.397324	0.2222	0	0	-0.110672	0.134616	0.027375	0.382217	-0.20336	0.0919067	1.36718	1.5708	0	0	0.57384	-0.207151	0.463215	1.03098	1.5708	0	0
10.29	2.76074	1.3825	-1.20277	0.791355	0.909928	0.983688	0.0498092	0.0855275	-0.178194	0.381992	0.0592247	0	0	-0.0163787	-0.140233	-0.126696	0.413814	0.229022	0	0	-0.108639	0.137233	0.0247144	0.379114	-0.203027	0.0897328	1.3687	1.5708	0	0	0.57049	-0.207299	0.462672	1.03356	1.5708	0	0
10.3	2.7468	1.3811	-1.18693	0.7909	0.905094	0.983536	0.0515112	0.0884282	-0.180602	0.375189	0.0533199	0	0	-0.0249325	-0.145645	-0.133446	0.430459	0.235151	0	0	-0.10687	0.139792	0.0216351	0.376066	-0.202822	0.0876813	1.37028	1.5708	0	0	0.567652	-0.207419	0.46275	1.03545	1.5708	0	0
10.31	2.73464	1.37961	-1.17233	0.79038	0.900169	0.983347	0.0535746	0.0908917	-0.183835	0.369339	0.0482092	0	0	-0.0336628	-0.150398	-0.137139	0.447136	0.240212	0	0	-0.105348	0.142007	0.0182098	0.373193	-0.202741	0.0859637	1.37189	1.5708	0	0	0.565596	-0.20758	0.463478	1.0367	1.5708	0	0
10.32	2.72444	1.37834	-1.15904	0.789769	0.895126	0.983106	0.0563375	0.0927051	-0.187752	0.364471	0.043747	0	0	-0.0419922	-0.154241	-0.137658	0.464301	0.245282	0	0	-0.103898	0.143805	0.0143768	0.370641	-0.202616	0.0833463	1.37369	1.5708	0	0	0.564311	-0.207797	0.464978	1.03726	1.5708	0	0
10.33	2.71553	1.37743	-1.14651	0.789048	0.889957	0.982818	0.0598803	0.0938977	-0.191507	0.360191	0.039367	0	0	-0.0493356	-0.157365	-0.136339	0.482557	0.250727	0	0	-0.102361	0.14532	0.0100999	0.368179	-0.2023	0.0803705	1.37565	1.5708	0	0	0.56347	-0.207873	0.466531	1.03786	1.5708	0	0
10.34	2.70736	1.3768	-1.13428	0.788222	0.884682	0.982498	0.0641694	0.0945988	-0.195753	0.356641	0.03489	0	0	-0.0558181	-0.15999	-0.13328	0.501804	0.256477	0	0	-0.100671	0.146665	0.00546417	0.365751	-0.20207	0.0775094	1.37771	1.5708	0	0	0.562839	-0.207785	0.467952	1.03874	1.5708	0	0
10.35	2.69975	1.37655	-1.12206	0.787324	0.879313	0.982135	0.0691135	0.0949006	-0.200372	0.353376	0.0301006	0	0	-0.0617342	-0.16193	-0.127234	0.520986	0.261906	0	0	-0.0986822	0.147768	0.000416174	0.363184	-0.201942	0.0748032	1.38009	1.5708	0	0	0.562291	-0.207856	0.469467	1.03953	1.5708	0	0
10.36	2.69244	1.37661	-1.10965	0.786313	0.873831	0.981735	0.0746059	0.094777	-0.205981	0.350428	0.0256541	0	0	-0.0670454	-0.163225	-0.119102	0.540101	0.267041	0	0	-0.0964902	0.148777	-0.00507901	0.360869	-0.202003	0.0724288	1.38218	1.5708	0	0	0.56176	-0.207966	0.470777	1.04029	1.5708	0	0
10.37	2.68543	1.37718	-1.09751	0.785205	0.868222	0.981296	0.0807046	0.0941775	-0.211797	0.347484	0.021461	0	0	-0.0715416	-0.163751	-0.109653	0.559252	0.272604	0	0	-0.0939861	0.149607	-0.0106444	0.358876	-0.202086	0.0701698	1.38395	1.5708	0	0	0.56129	-0.207856	0.47136	1.04105	1.5708	0	0
10.38	2.67857	1.37829	-1.08542	0.784019	0.86251	0.98083	0.0872502	0.0930524	-0.217532	0.344462	0.0177957	0	0	-0.0750461	-0.163563	-0.0996503	0.578551	0.278461	0	0	-0.0910738	0.150241	-0.0163805	0.35727	-0.202297	0.0682347	1.38545	1.5708	0	0	0.560851	-0.207418	0.471081	1.04211	1.5708	0	0
10.39	2.67196	1.3797	-1.0739	0.782753	0.856681	0.980349	0.0939988	0.0915028	-0.222712	0.341171	0.014261	0	0	-0.078074	-0.162624	-0.0892187	0.597717	0.284556	0	0	-0.0881134	0.150811	-0.0217773	0.356234	-0.202738	0.0666903	1.38668	1.5708	0	0	0.560651	-0.206496	0.470186	1.04301	1.5708	0	0
10.4	2.66589	1.38138	-1.06333	0.781426	0.850745	0.979845	0.101012	0.0894799	-0.227596	0.337815	0.0113771	0	0	-0.0809747	-0.160928	-0.0787163	0.616018	0.290293	0	0	-0.0851681	0.151246	-0.0267105	0.35551	-0.203309	0.065253	1.38781	1.5708	0	0	0.560798	-0.205247	0.469164	1.04299	1.5708	0	0
10.41	2.65902	1.38346	-1.05211	0.780091	0.84472	0.979307	0.108755	0.087112	-0.232818	0.334891	0.00904781	0	0	-0.0834881	-0.158824	-0.0680843	0.633223	0.295524	0	0	-0.0818758	0.151511	-0.0314249	0.354802	-0.203936	0.0635575	1.38874	1.5708	0	0	0.561365	-0.203999	0.468976	1.04196	1.5708	0	0
